# xmcd
#
# Track frame offsets:
#	150
#	20620
#	46118
#	69450
#	87910
#	105735
#	127475
#	142725
#	163980
#	183353
#	201140
#
# Disc length: 2816 seconds
#
# Revision: 3606323445
# Processed by: cddbd v1.5.2PL0 Copyright (c) Steve Scherf et al.
# Submitted via: EZCDAudioConverter 8.0.2.1
#
DISCID=9a0afe0b
DTITLE=Various Artist - Dạ Vũ Ba Chữ AAA
DYEAR=1990
DGENRE=World Pop
TTITLE0=Tuấn Vũ - Hoa biển
TTITLE1=Như Mai - Về miên Nam Mỹ
TTITLE2=Thiên Trang - Không bao giờ ngăn cách
TTITLE3=Như Mai, Vũ Khanh - Tình có như không
TTITLE4=Khánh Dung - San Francisco
TTITLE5=Thiên Trang - Nhà anh nhà em
TTITLE6=Như Mai - Hỡi em yêu
TTITLE7=Hương Thơ - Cô bạn nhỏ
TTITLE8=Như Mai - Chiều hành quân
TTITLE9=Vy Lan - Đường xa ướt mưa
TTITLE10=Soundtrack - Về miên Nam Mỹ
EXTD=
EXTT0=
EXTT1=
EXTT2=
EXTT3=
EXTT4=
EXTT5=
EXTT6=
EXTT7=
EXTT8=
EXTT9=
EXTT10=
PLAYORDER=
